<?xml version="1.0" standalone="no"?>
<!DOCTYPE svg PUBLIC "-//W3C//DTD SVG 20010904//EN"
 "http://www.w3.org/TR/2001/REC-SVG-20010904/DTD/svg10.dtd">
<svg version="1.0" xmlns="http://www.w3.org/2000/svg"
 width="232.000000pt" height="232.000000pt" viewBox="0 0 232.000000 232.000000"
 preserveAspectRatio="xMidYMid meet">
<metadata>
Created by potrace 1.11, written by Peter Selinger 2001-2013
</metadata>
<g transform="translate(0.000000,232.000000) scale(0.100000,-0.100000)"
fill="#000000" stroke="none">
<path d="M0 1160 l0 -1160 1160 0 1160 0 0 1160 0 1160 -1160 0 -1160 0 0
-1160z m1300 330 c46 -23 75 -59 60 -74 -7 -7 -16 -7 -28 2 -69 48 -86 52
-247 52 l-155 0 0 -150 0 -150 164 0 c153 0 165 1 197 23 19 12 42 38 51 56
22 45 30 52 47 42 39 -24 -50 -139 -124 -160 -22 -6 -106 -11 -187 -11 l-148
0 0 -158 0 -158 40 -39 40 -39 0 169 c0 94 4 176 9 184 12 19 41 6 41 -19 0
-19 6 -20 164 -20 153 0 165 1 197 23 96 64 90 203 -11 255 -40 20 -58 22
-197 22 l-153 0 0 -65 c0 -51 -4 -67 -16 -72 -25 -9 -34 16 -34 100 l0 77 190
0 c171 0 195 -2 230 -20 118 -60 139 -224 41 -313 -54 -49 -92 -57 -263 -57
l-148 0 0 -187 0 -188 -90 90 -90 90 0 357 0 358 190 0 c171 0 195 -2 230 -20z"/>
</g>
</svg>
